<svg width="29" height="38" viewBox="0 0 29 38" fill="none" xmlns="http://www.w3.org/2000/svg">
<mask id="path-1-inside-1_79_19" fill="white">
<path fill-rule="evenodd" clip-rule="evenodd" d="M27.7388 2.25946C28.334 2.58203 28.1648 3.46111 27.5163 3.65572C21.167 5.56124 16.5407 11.4505 16.5407 18.4203C16.5407 25.6974 21.5838 31.7965 28.3657 33.4134C29.0244 33.5705 29.2437 34.4385 28.6678 34.7946C25.7989 36.5686 22.4171 37.5925 18.7962 37.5925C8.41536 37.5925 0 29.1771 0 18.7962C0 8.41536 8.41536 0 18.7962 0C22.0334 0 25.0795 0.81835 27.7388 2.25946Z"/>
</mask>
<path d="M28.6678 34.7946L26.5641 31.3925L28.6678 34.7946ZM20.5407 18.4203C20.5407 13.2653 23.9616 8.89879 28.6661 7.48691L26.3665 -0.175463C18.3724 2.22369 12.5407 9.63576 12.5407 18.4203H20.5407ZM29.2934 29.5225C24.2716 28.3252 20.5407 23.8036 20.5407 18.4203H12.5407C12.5407 27.5911 18.896 35.2678 27.4381 37.3044L29.2934 29.5225ZM26.5641 31.3925C24.3091 32.7869 21.6528 33.5925 18.7962 33.5925V41.5925C23.1814 41.5925 27.2888 40.3503 30.7715 38.1967L26.5641 31.3925ZM18.7962 33.5925C10.6245 33.5925 4 26.968 4 18.7962H-4C-4 31.3862 6.20622 41.5925 18.7962 41.5925V33.5925ZM4 18.7962C4 10.6245 10.6245 4 18.7962 4V-4C6.20622 -4 -4 6.20622 -4 18.7962H4ZM18.7962 4C21.3515 4 23.7443 4.64437 25.833 5.77627L29.6446 -1.25735C26.4147 -3.00767 22.7154 -4 18.7962 -4V4ZM27.4381 37.3044C26.1736 37.0029 25.3325 36.0086 25.0831 34.9327C24.8161 33.7812 25.1951 32.239 26.5641 31.3925L30.7715 38.1967C32.7164 36.9941 33.2737 34.8399 32.8764 33.126C32.4966 31.4879 31.2165 29.981 29.2934 29.5225L27.4381 37.3044ZM28.6661 7.48691C30.5594 6.91871 31.7507 5.34117 32.036 3.68417C32.3344 1.95064 31.6549 -0.167947 29.6446 -1.25735L25.833 5.77627C24.4179 5.00944 23.9514 3.49168 24.1519 2.32699C24.3393 1.23882 25.1217 0.198122 26.3665 -0.175463L28.6661 7.48691Z" fill="#FA9043" mask="url(#path-1-inside-1_79_19)"/>
</svg>
