<svg width="81" height="34" viewBox="0 0 81 34" fill="none" xmlns="http://www.w3.org/2000/svg">
<rect x="0.0944824" y="0.973694" width="8.27508" height="31.8144" fill="#FA9043"/>
<path fill-rule="evenodd" clip-rule="evenodd" d="M38.0799 0.973694V32.7881H30.8621L30.8302 11.3077L27.9515 32.7881H22.7874L19.7768 11.7702L19.7428 32.7881H12.5271V0.973694H23.2331C23.5166 2.90592 23.8431 5.16598 24.2245 7.75223L25.4014 15.8302L27.3055 0.973694H38.0799V0.973694Z" fill="#FA9043"/>
<path fill-rule="evenodd" clip-rule="evenodd" d="M48.773 6.39751V27.3642C49.952 27.3642 50.6792 27.1252 50.95 26.6439C51.2183 26.1642 51.3572 24.8627 51.3572 22.7389V10.3536C51.3572 8.90928 51.3105 7.98471 51.2183 7.57993C51.1265 7.17064 50.9217 6.87268 50.5977 6.68319C50.2765 6.49123 49.6685 6.39751 48.773 6.39751ZM40.5 0.973694H46.6793C50.6685 0.973694 53.3682 1.15705 54.7733 1.52336C56.1809 1.89171 57.2513 2.495 57.9825 3.32993C58.7138 4.17142 59.1722 5.10213 59.3557 6.13352C59.5413 7.16246 59.6331 9.17981 59.6331 12.1921V23.3357C59.6331 26.1925 59.4966 28.0993 59.2304 29.0624C58.9616 30.025 58.4946 30.7785 57.8248 31.3245C57.1575 31.8672 56.3345 32.247 55.3538 32.4659C54.3726 32.6808 52.8954 32.7881 50.9188 32.7881H40.5004V0.973694H40.5Z" fill="#FA9043"/>
<path fill-rule="evenodd" clip-rule="evenodd" d="M72.6494 14.1452C72.6494 12.8011 72.5622 11.9257 72.3893 11.5123C72.2164 11.101 71.8817 10.8943 71.3762 10.8943C70.8838 10.8943 70.5639 11.0756 70.4189 11.4313C70.2718 11.791 70.1993 12.6968 70.1993 14.1452V25.3506C70.1993 26.7479 70.2824 27.6409 70.4488 28.0326C70.6126 28.4267 70.9432 28.6187 71.4336 28.6187C71.937 28.6187 72.2652 28.419 72.4184 28.0134C72.572 27.6065 72.649 26.6353 72.649 25.0931V14.1452H72.6494ZM70.1993 0.973694V8.54665C70.858 7.77965 71.5897 7.20666 72.3955 6.82971C73.2074 6.4544 74.0861 6.26531 75.0328 6.26531C76.1221 6.26531 77.0672 6.43598 77.8709 6.77446C78.6726 7.11744 79.2847 7.59466 79.705 8.20817C80.1249 8.82374 80.3789 9.42702 80.4657 10.0147C80.5489 10.6029 80.5939 11.8573 80.5939 13.781V25.5167C80.5939 27.4281 80.4657 28.8508 80.206 29.7864C79.9524 30.7232 79.3465 31.5352 78.4002 32.2212C77.4514 32.9072 76.3273 33.2501 75.025 33.2501C74.089 33.2501 73.2168 33.0455 72.4061 32.6362C71.5942 32.2253 70.8519 31.6114 70.1845 30.7961L69.6704 32.7881H62.2568V0.973694H70.1993Z" fill="#FA9043"/>
</svg>
